<svg xmlns="http://www.w3.org/2000/svg" width="75.36" height="64.74" viewBox="0 0 75.36 64.74">
  <defs>
    <style>
      .cls-1 {
        fill: #e1523d;
      }

      .cls-2 {
        fill: #fff;
      }
    </style>
  </defs>
  <title>logo</title>
  <g id="Capa_2" data-name="Capa 2">
    <g id="Capa_1-2" data-name="Capa 1">
      <path class="cls-1" d="M.23,33.41a9.2,9.2,0,0,1,2.1-8l23-23.32A7.8,7.8,0,0,1,33.12.44l37.79,15.2a7.64,7.64,0,0,1,4.45,6.58V51.59A5.66,5.66,0,0,1,70.58,57L13.76,64.69a5.65,5.65,0,0,1-6-4Z"/>
      <path class="cls-2" d="M23.06,34.47a8.26,8.26,0,0,1-3.3.61,7.12,7.12,0,0,1-7.42-7.44,7.44,7.44,0,0,1,7.77-7.46,7.71,7.71,0,0,1,2.95.5v4a5,5,0,0,0-3-.87,3.57,3.57,0,0,0-3.58,3.78,3.66,3.66,0,0,0,3.85,3.87,5.67,5.67,0,0,0,2.77-.71Zm8.11-4.22A4.21,4.21,0,0,0,29.65,30c-1.13,0-1.78.55-1.78,1.37a1.22,1.22,0,0,0,1.37,1.24,1.78,1.78,0,0,0,1.93-1.82ZM44.8,27.34a10.2,10.2,0,0,0-4-1.13c-.82,0-1.12.24-1.12.54,0,.48.64.68,1.81,1,2.19.64,3.94,1.39,3.94,3.55,0,2.5-2.13,3.77-5.11,3.77a9.22,9.22,0,0,1-3.89-.76v-3a11.06,11.06,0,0,0,4.1,1c1.07,0,1.37-.21,1.37-.6s-.62-.66-1.78-1c-2.2-.59-3.95-1.32-3.95-3.56,0-2.42,2.1-3.74,4.81-3.74a8.47,8.47,0,0,1,3.86.84Zm2.11-3a12.92,12.92,0,0,1,4.28-.83c3.69,0,5.62,1.4,5.62,4.92v6.35H53V33.63A4.21,4.21,0,0,1,49.71,35C47.6,35,46,33.82,46,31.56s1.73-3.47,4.34-3.47a8.66,8.66,0,0,1,2.66.42v-.18c0-1.14-.72-1.85-2.45-1.85a9.24,9.24,0,0,0-3.6.8ZM53,30.25A4.21,4.21,0,0,0,51.51,30c-1.13,0-1.78.55-1.78,1.37a1.22,1.22,0,0,0,1.37,1.24A1.78,1.78,0,0,0,53,30.76Zm-28-5.93a13,13,0,0,1,4.28-.83c3.7,0,5.63,1.4,5.63,4.92v6.35H31.11V33.63A4.2,4.2,0,0,1,27.86,35c-2.11,0-3.74-1.2-3.74-3.46s1.73-3.47,4.34-3.47a8.78,8.78,0,0,1,2.67.42v-.18c0-1.14-.73-1.85-2.46-1.85a9.24,9.24,0,0,0-3.6.8ZM13.18,36.82h4V47.64H23v3.49H13.18Zm10.63,3.23H27.7v6c0,1.2.64,1.86,1.59,1.86a1.63,1.63,0,0,0,1.61-1.86v-6H34.8V51.11h-3.9V49.59a4,4,0,0,1-3.32,1.76c-2.35,0-3.76-1.55-3.78-4.05Zm12.78-3.23h3.89v6.93l3-3.71h4.4l-3.84,4.45,4,6.61h-4.3l-2.23-3.76-1,1.17V51.1H36.59ZM59.2,40.05h3.89v2.24a3.39,3.39,0,0,1,3.51-2.4V44h-.33c-2,0-3.16,1.15-3.16,3.71v3.44H59.2Zm6.23,9.5h.49a.45.45,0,0,1,.33.1.33.33,0,0,1,.1.24.34.34,0,0,1-.2.33l.24.36h-.33l-.22-.3h-.12v.3h-.29Zm.47.49c.1,0,.16,0,.16-.13s-.06-.12-.16-.12h-.18V50Zm0,1.25a1.21,1.21,0,0,1-1.22-1.19,1.21,1.21,0,1,1,1.22,1.19m0-2.13a.93.93,0,0,0,0,1.85.93.93,0,1,0,0-1.85M51.06,44.49a8.78,8.78,0,0,0,2.76.19c.87-.08,1.16-.1,1.16-.53a2.53,2.53,0,0,0-.1-.71,1.76,1.76,0,0,0-2-1.12,2,2,0,0,0-1.8,2.17m2.88,4a7.42,7.42,0,0,0,3.82-1.11v3a9.77,9.77,0,0,1-4.52,1.09c-3.7,0-6-2.08-6-5.84a5.44,5.44,0,0,1,5.86-5.8c2.44.07,4.08,1.24,4.6,3.61a4.84,4.84,0,0,1-.26,2.75,8.56,8.56,0,0,1-3.4.58,11.21,11.21,0,0,1-2.95-.26c0,1.17.74,1.94,2.85,1.94"/>
    </g>
  </g>
</svg>
