<svg xmlns="http://www.w3.org/2000/svg" xmlns:xlink="http://www.w3.org/1999/xlink" width="124.99" height="114.24" viewBox="0 0 124.99 114.24">
  <defs>
    <style>
      .cls-1, .cls-5 {
        fill: none;
      }

      .cls-2 {
        clip-path: url(#clip-path);
      }

      .cls-3 {
        fill: #e1523d;
      }

      .cls-4 {
        font-size: 13.3px;
        fill: #fff;
        font-family: OpenSans-Bold, Open Sans;
        font-weight: 700;
      }

      .cls-5 {
        stroke: #fff;
        stroke-miterlimit: 10;
        stroke-width: 1.6px;
      }
    </style>
    <clipPath id="clip-path" transform="translate(-14.24 -1.93)">
      <rect class="cls-1" width="144.55" height="89.57"/>
    </clipPath>
  </defs>
  <title>contact</title>
  <g id="Capa_2" data-name="Capa 2">
    <g id="Capa_1-2" data-name="Capa 1">
      <g class="cls-2">
        <g>
          <path class="cls-3" d="M14.62,60.88C13.46,56.4,15,50,18.09,46.71L56.19,5.57a12.38,12.38,0,0,1,13-2.87l62.68,26.82c4.06,1.74,7.39,7,7.39,11.61l0,51.84c0,4.64-3.55,9-7.9,9.58L37.06,116.09c-4.35.63-8.84-2.53-10-7Z" transform="translate(-14.24 -1.93)"/>
          <text class="cls-4" transform="translate(14.62 71.71) rotate(0.35)">CONTÁCTANOS</text>
          <g>
            <path class="cls-5" d="M61.82,39.34l-10.33-.06a2.62,2.62,0,0,0-2.63,2.61l-.06,8.69a2.63,2.63,0,0,0,2.61,2.64h1.67a.32.32,0,0,1,.31.32l0,3.42a.32.32,0,0,0,.54.23l3.9-3.85a.32.32,0,0,1,.23-.09l7,0a2.61,2.61,0,0,0,2.63-2.6" transform="translate(-14.24 -1.93)"/>
            <line class="cls-5" x1="42.41" y1="42.35" x2="50.39" y2="42.4"/>
            <line class="cls-5" x1="39.56" y1="46.07" x2="44.42" y2="46.1"/>
            <path class="cls-5" d="M68.76,26.42l21.32.13a4.1,4.1,0,0,1,4.07,4.13l-.08,13.61a4.1,4.1,0,0,1-4.13,4.08h-2.6a.5.5,0,0,0-.51.49l0,5.36a.49.49,0,0,1-.85.34l-6-6.09a.47.47,0,0,0-.35-.15l-10.94-.07a4.1,4.1,0,0,1-4.08-4.13l.08-13.61A4.12,4.12,0,0,1,68.76,26.42Z" transform="translate(-14.24 -1.93)"/>
            <path class="cls-5" d="M74,33.22a1.87,1.87,0,0,0,1.68.88,1.85,1.85,0,0,0,1.68-.86" transform="translate(-14.24 -1.93)"/>
            <path class="cls-5" d="M72,39.19C73.18,41.42,76,43,79.32,43s6.16-1.55,7.35-3.76" transform="translate(-14.24 -1.93)"/>
            <path class="cls-5" d="M81.36,33.27a1.89,1.89,0,0,0,1.68.88,1.92,1.92,0,0,0,1.69-.86" transform="translate(-14.24 -1.93)"/>
            <polyline class="cls-5" points="38.42 30.98 39.79 32.36 42.56 29.62"/>
            <line class="cls-5" x1="43.1" y1="32.38" x2="45.87" y2="29.64"/>
          </g>
        </g>
      </g>
    </g>
  </g>
</svg>
