<svg xmlns="http://www.w3.org/2000/svg" xmlns:xlink="http://www.w3.org/1999/xlink" viewBox="0 0 489.14 500.36" preserveAspectRatio="xMidYMid meet">
<defs>
<style>
.cls-1{isolation:isolate;}.cls-2{fill:#e1523d;}.cls-3{fill:#e59188;}.cls-3,.cls-4{opacity:0.87;}.cls-4{fill:#cc1d0a;}.cls-5{fill:url(#Degradado_sin_nombre_5);}.cls-6{opacity:0.8;fill:url(#Degradado_sin_nombre_128);}.cls-15,.cls-20,.cls-23,.cls-26,.cls-27,.cls-6{mix-blend-mode:multiply;}.cls-7,.cls-8{opacity:0.9;}.cls-7{font-size:20.1px;}.cls-12,.cls-13,.cls-29,.cls-7,.cls-8{fill:#fff;}.cls-12,.cls-13,.cls-7,.cls-8{font-family:Hermes-Bold, Hermes;font-weight:700;}.cls-8{font-size:19.89px;}.cls-10,.cls-9{fill:#511788;}.cls-10,.cls-17,.cls-20,.cls-26{opacity:0.1;}.cls-11{fill:#44147c;}.cls-12{font-size:31.6px;}.cls-13{font-size:14.37px;}.cls-14{fill:#ca047e;}.cls-15{fill:#ac0079;opacity:0.05;}.cls-16{fill:#f9be0d;}.cls-17,.cls-18{fill:#e8bc26;}.cls-19,.cls-20{fill:#0c9279;}.cls-21{fill:#1f8975;}.cls-22,.cls-23{fill:#a8d32c;}.cls-23{opacity:0.15;}.cls-24{fill:#aabc3f;}.cls-25,.cls-26{fill:#459fdd;}.cls-27{fill:url(#Degradado_sin_nombre_130);}.cls-28{fill:url(#Degradado_sin_nombre_130-2);}

#brand-logo{
    opacity: 0;
    transition: opacity 2s;
}

.item{
    opacity: 0;
    transition: opacity 1.5s, transform 1.5s;
    transform-origin: 50% 50%;
}

.item:hover{
        transform: scale(1.15);
}

</style>
<radialGradient id="Degradado_sin_nombre_5" cx="334.39" cy="292.28" fx="739.2796273280406" r="404.9" gradientTransform="matrix(1.16, -0.01, 0.01, 1.16, -132.71, -40.37)" gradientUnits="userSpaceOnUse"><stop offset="0" stop-color="#fff"/><stop offset="0.17" stop-color="#fafafa"/><stop offset="0.38" stop-color="#ececec"/><stop offset="0.59" stop-color="#d5d5d5"/><stop offset="0.82" stop-color="#b4b4b4"/><stop offset="1" stop-color="#949494"/></radialGradient><radialGradient id="Degradado_sin_nombre_128" cx="157.75" cy="828.25" r="72.27" gradientTransform="translate(34.21 262.71) scale(1.44 0.2)" gradientUnits="userSpaceOnUse"><stop offset="0"/><stop offset="1" stop-color="#fff" stop-opacity="0"/></radialGradient><linearGradient id="Degradado_sin_nombre_130" x1="517.58" y1="350.51" x2="389.42" y2="179.92" gradientUnits="userSpaceOnUse"><stop offset="0" stop-color="#cccdcf"/><stop offset="1" stop-color="#fff"/></linearGradient><linearGradient id="Degradado_sin_nombre_130-2" x1="513.31" y1="344.82" x2="396.17" y2="188.9" xlink:href="#Degradado_sin_nombre_130"/></defs><title>Circulo Luker</title><g class="cls-1"><g id="Capa_1" data-name="Capa 1"><g id="circle-orange-main"><ellipse id="maincircle" class="cls-2" cx="244.56" cy="250.18" rx="244.56" ry="250.18"/><path class="cls-3" d="M460.14,48.54C594,47.47,703.49,156.61,706.48,293c0-1.24.07-2.47.06-3.71-1-138.17-111.4-249.3-246.46-248.22s-243.69,114-242.63,252.13c0,1.25.09,2.47.11,3.72C218.47,160.49,326.29,49.61,460.14,48.54Z" transform="translate(-217.44 -41.11)"/><path class="cls-4" d="M463.85,534.13C330,535.2,220.52,427.6,217.53,293.07c0,1.23-.07,2.44-.06,3.67,1,136.23,111.37,245.79,246.44,244.71s243.7-112.39,242.66-248.62c0-1.23-.09-2.44-.11-3.67C705.53,423.72,597.69,533.06,463.85,534.13Z" transform="translate(-217.44 -41.11)"/></g><path id="circle-gray-inner" class="cls-5" d="M670.07,291.15c.9,117.26-91.3,213.05-205.91,214S255.89,411.73,255,294.48s91.3-213,205.92-214S669.18,173.9,670.07,291.15Z" transform="translate(-217.44 -41.11)"/><ellipse id="shadow-circle-items" class="cls-6" cx="287.48" cy="427.88" rx="148.28" ry="19.83"/><text id="title-top" class="cls-7" transform="translate(31.97 193.75) rotate(-73.24) scale(1.01 1)">T</text><text class="cls-7" transform="matrix(0.35, -0.94, 0.94, 0.35, 35.45, 182.09)">A</text><text class="cls-7" transform="translate(40.23 169.2) rotate(-66.57) scale(1.01 1)">L</text><text class="cls-7" transform="matrix(0.45, -0.9, 0.9, 0.44, 44.49, 159.32)">E</text><text class="cls-7" transform="matrix(0.5, -0.87, 0.87, 0.5, 49.64, 148.83)">N</text><text class="cls-7" transform="translate(57.08 135.96) rotate(-56.55) scale(1.01 1)">T</text><text class="cls-7" transform="translate(63.76 125.8) rotate(-53.13) scale(1.01 1)">O</text><text class="cls-7" transform="matrix(0.64, -0.78, 0.77, 0.63, 72.32, 114.54)"> </text><text class="cls-7" transform="translate(75.23 110.83) rotate(-48.24) scale(1.01 1)">Y</text><text class="cls-7" transform="translate(84.54 100.55) rotate(-45.83) scale(1.01 1)"> </text><text class="cls-7" transform="matrix(0.73, -0.69, 0.69, 0.73, 87.75, 97.1)">G</text><text class="cls-7" transform="translate(97.84 87.59) rotate(-40.09) scale(1.01 1)">E</text><text class="cls-7" transform="translate(106.8 80.02) rotate(-36.91) scale(1.01 1)">S</text><text class="cls-7" transform="matrix(0.84, -0.56, 0.55, 0.83, 116.99, 72.37)">T</text><text class="cls-7" transform="translate(127.19 65.65) rotate(-31.22) scale(1.01 1)">I</text><text class="cls-7" transform="translate(132.74 62.18) rotate(-28.53) scale(1.01 1)">Ó</text><text class="cls-7" transform="matrix(0.91, -0.42, 0.42, 0.91, 145.06, 55.45)">N</text><text class="cls-7" transform="matrix(0.93, -0.38, 0.38, 0.93, 158.67, 49.3)"> </text><text class="cls-7" transform="translate(163 47.42) rotate(-19.75) scale(1.01 1)">G</text><text class="cls-7" transform="translate(176.06 42.76) rotate(-16.4) scale(1.01 1)">E</text><text class="cls-7" transform="matrix(0.98, -0.23, 0.23, 0.97, 187.3, 39.43)">S</text><text class="cls-7" transform="translate(199.69 36.53) rotate(-9.95) scale(1.01 1)">T</text><text class="cls-7" transform="matrix(1, -0.13, 0.13, 0.99, 211.74, 34.47)">I</text><text class="cls-7" transform="matrix(1, -0.08, 0.08, 1, 218.23, 33.53)">Ó</text><text class="cls-7" transform="matrix(1.01, -0.02, 0.02, 1, 232.22, 32.32)">N</text><text class="cls-7" transform="matrix(1.01, 0.02, -0.02, 1, 247.13, 32.14)"> </text><text class="cls-7" transform="translate(251.87 32.17) rotate(3.59) scale(1.01 1)">C</text><text class="cls-7" transform="translate(264.4 32.93) rotate(7.03) scale(1.01 1)">O</text><text class="cls-7" transform="matrix(0.99, 0.19, -0.19, 0.98, 278.32, 34.59)">M</text><text class="cls-7" transform="translate(294.84 37.85) rotate(15.07) scale(1.01 1)">O</text><text class="cls-7" transform="translate(308.44 41.61) rotate(17.53) scale(1.01 1)"> </text><text class="cls-7" transform="translate(312.96 42.94) rotate(19.96) scale(1.01 1)">A</text><text class="cls-7" transform="matrix(0.92, 0.4, -0.39, 0.92, 325.9, 47.68)">L</text><text class="cls-7" transform="translate(335.79 51.95) rotate(25.43) scale(1.01 1)">I</text><text class="cls-7" transform="translate(341.71 54.67) rotate(28.08) scale(1.01 1)">A</text><text class="cls-7" transform="matrix(0.86, 0.53, -0.53, 0.85, 353.85, 61.13)">D</text><text class="cls-7" transform="translate(365.69 68.43) rotate(35.33) scale(1.01 1)">O</text><text class="cls-7" transform="matrix(0.79, 0.62, -0.61, 0.79, 377.13, 76.66)"> </text><text class="cls-7" transform="matrix(0.77, 0.65, -0.64, 0.77, 380.92, 79.51)">E</text><text class="cls-7" transform="translate(389.92 87.01) rotate(43.09) scale(1.01 1)">S</text><text class="cls-7" transform="translate(399.23 95.73) rotate(46.33) scale(1.01 1)">T</text><text class="cls-7" transform="translate(407.66 104.51) rotate(49.76) scale(1.01 1)">R</text><text class="cls-7" transform="translate(416.8 115.31) rotate(53.4) scale(1.01 1)">A</text><text class="cls-7" transform="matrix(0.55, 0.84, -0.84, 0.55, 424.99, 126.37)">T</text><text class="cls-7" transform="translate(431.67 136.57) rotate(59.93) scale(1.01 1)">É</text><text class="cls-7" transform="translate(437.56 146.67) rotate(63.29) scale(1.01 1)">G</text><text class="cls-7" transform="matrix(0.41, 0.92, -0.91, 0.41, 443.75, 159.14)">I</text><text class="cls-7" transform="translate(446.47 165.09) rotate(68.52) scale(1.01 1)">C</text><text class="cls-7" transform="matrix(0.31, 0.96, -0.95, 0.31, 451.09, 176.75)">O</text><text id="title-bottom" class="cls-8" transform="translate(19.38 304.73) rotate(76.63) scale(1.01 1)">L</text><text class="cls-8" transform="translate(22 315.54) rotate(74.36) scale(1.01 1)">Í</text><text class="cls-8" transform="translate(23.82 322.34) rotate(71.66) scale(1.01 1)">D</text><text class="cls-8" transform="translate(28.42 336.04) rotate(68.29) scale(1.01 1)">E</text><text class="cls-8" transform="translate(32.94 347.46) rotate(64.9) scale(1.01 1)">R</text><text class="cls-8" transform="translate(39.24 360.8) rotate(61.51) scale(1.01 1)">E</text><text class="cls-8" transform="matrix(0.53, 0.86, -0.85, 0.53, 45.1, 371.58)">S</text><text class="cls-8" transform="translate(52.05 382.69) rotate(56.05) scale(1.01 1)"> </text><text class="cls-8" transform="matrix(0.59, 0.81, -0.81, 0.59, 54.87, 387)">C</text><text class="cls-8" transform="matrix(0.64, 0.77, -0.77, 0.64, 62.62, 397.61)">O</text><text class="cls-8" transform="translate(71.99 408.96) rotate(46.38) scale(1.01 1)">M</text><text class="cls-8" transform="translate(84.08 421.54) rotate(42.46) scale(1.01 1)">P</text><text class="cls-8" transform="matrix(0.78, 0.63, -0.63, 0.78, 94.67, 431.22)">R</text><text class="cls-8" transform="matrix(0.82, 0.58, -0.58, 0.82, 106.19, 440.48)">O</text><text class="cls-8" transform="translate(118.2 448.99) rotate(31.25) scale(1.01 1)">M</text><text class="cls-8" transform="matrix(0.89, 0.47, -0.46, 0.89, 133.15, 457.94)">E</text><text class="cls-8" transform="translate(144.01 463.61) rotate(24.47) scale(1.01 1)">T</text><text class="cls-8" transform="translate(155.49 468.76) rotate(22.04) scale(1.01 1)">I</text><text class="cls-8" transform="translate(161.98 471.47) rotate(19.38) scale(1.01 1)">D</text><text class="cls-8" transform="translate(175.67 476.27) rotate(15.75) scale(1.01 1)">O</text><text class="cls-8" transform="translate(189.77 480.21) rotate(12.28) scale(1.01 1)">S</text><text class="cls-8" transform="translate(202.61 482.91) rotate(10.02) scale(1.01 1)"> </text><text class="cls-8" transform="translate(207.65 483.88) rotate(7.78) scale(1.01 1)">C</text><text class="cls-8" transform="translate(220.67 485.66) rotate(4.37) scale(1.01 1)">O</text><text class="cls-8" transform="translate(235.26 486.75) rotate(0.92) scale(1.01 1)">N</text><text class="cls-8" transform="translate(250.58 486.85) rotate(-1.77) scale(1.01 1)"> </text><text class="cls-8" transform="matrix(1, -0.07, 0.07, 1, 255.69, 486.75)">E</text><text class="cls-8" transform="translate(267.87 485.9) rotate(-6.73) scale(1.01 1)">L</text><text class="cls-8" transform="translate(278.88 484.54) rotate(-8.73) scale(1.01 1)"> </text><text class="cls-8" transform="translate(284 483.85) rotate(-11.14) scale(1.01 1)">D</text><text class="cls-8" transform="matrix(0.97, -0.25, 0.25, 0.97, 298.16, 481.01)">E</text><text class="cls-8" transform="matrix(0.96, -0.3, 0.3, 0.95, 310.04, 477.95)">S</text><text class="cls-8" transform="matrix(0.94, -0.36, 0.36, 0.93, 322.72, 473.92)">A</text><text class="cls-8" transform="translate(336.1 468.76) rotate(-24.68) scale(1.01 1)">R</text><text class="cls-8" transform="translate(349.53 462.57) rotate(-28.35) scale(1.01 1)">R</text><text class="cls-8" transform="matrix(0.85, -0.53, 0.53, 0.85, 362.53, 455.52)">O</text><text class="cls-8" transform="translate(374.89 447.73) rotate(-35.2) scale(1.01 1)">L</text><text class="cls-8" transform="translate(384.04 441.27) rotate(-37.97) scale(1.01 1)">L</text><text class="cls-8" transform="translate(392.94 434.36) rotate(-41.16) scale(1.01 1)">O</text><text class="cls-8" transform="matrix(0.73, -0.69, 0.69, 0.72, 403.77, 424.75)"> </text><text class="cls-8" transform="translate(407.58 421.25) rotate(-45.98) scale(1.01 1)">D</text><text class="cls-8" transform="matrix(0.66, -0.76, 0.76, 0.65, 417.59, 410.83)">E</text><text class="cls-8" transform="translate(425.42 401.62) rotate(-51.42) scale(1.01 1)"> </text><text class="cls-8" transform="matrix(0.6, -0.81, 0.81, 0.59, 428.68, 397.65)">S</text><text class="cls-8" transform="matrix(0.55, -0.84, 0.84, 0.54, 436.58, 386.91)">U</text><text class="cls-8" transform="matrix(0.51, -0.87, 0.86, 0.51, 444.24, 374.85)"> </text><text class="cls-8" transform="translate(446.94 370.44) rotate(-61.99) scale(1.01 1)">G</text><text class="cls-8" transform="translate(453.67 357.69) rotate(-65.33) scale(1.01 1)">E</text><text class="cls-8" transform="translate(458.83 346.52) rotate(-68.82) scale(1.01 1)">N</text><text class="cls-8" transform="translate(464.36 332.11) rotate(-72.37) scale(1.01 1)">T</text><text class="cls-8" transform="matrix(0.25, -0.97, 0.97, 0.25, 468.19, 319.99)">E</text><g id="item-six" class="item"><path class="cls-9" d="M309.64,190.92a190.84,190.84,0,0,0,0,187L467.91,284.4Z" transform="translate(-217.44 -41.11)"/><path class="cls-10" d="M310,376.42a189.81,189.81,0,0,1,0-184l155.82,92Z" transform="translate(-217.44 -41.11)"/><polygon class="cls-11" points="92.21 149.81 118.18 148.06 110.36 160.54 92.21 149.81"/><polygon class="cls-11" points="92.21 336.77 117.03 340.22 108.73 327.01 92.21 336.77"/><text class="cls-12" transform="translate(108.08 223.48)">6</text><text class="cls-13" transform="translate(100.93 249.76)">Cierre<tspan x="-3.94" y="17.24">Exitoso</tspan></text></g><g id="item-five" class="item"><path id="_Trazado_" data-name="&lt;Trazado&gt;" class="cls-14" d="M326.17,368.11c28.29,50,81.17,83.7,141.74,83.7V284.4Z" transform="translate(-217.44 -41.11)"/><path class="cls-15" d="M325,368.11c28.3,50,81.18,83.7,141.75,83.7V284.4Z" transform="translate(-217.44 -41.11)"/><text class="cls-12" transform="translate(171.61 321.16)">5</text><text class="cls-13" transform="translate(142.07 343.14)">Compromiso y<tspan x="-7.03" y="17.24">Reconocimiento</tspan></text></g><g id="item-four" class="item"><path class="cls-16" d="M467.91,469.53c67,0,125.46-37.23,156.75-92.56L467.91,284.4Z" transform="translate(-217.44 -41.11)"/><path class="cls-17" d="M469.59,286.23l154.29,91.13a183.22,183.22,0,0,1-64.1,65.72,176.59,176.59,0,0,1-90.19,25.38Z" transform="translate(-217.44 -41.11)"/><polygon class="cls-18" points="250.47 428.42 240.89 410.42 250.47 410.7 250.47 428.42"/><polygon class="cls-18" points="407.22 335.87 402.62 325.1 399.33 331.21 407.22 335.87"/><text class="cls-12" transform="translate(297.21 341.27)">4</text><text class="cls-13" transform="translate(265.91 361.82)">Desempeño y<tspan x="10.65" y="17.24">Desarrollo</tspan></text></g><g id="item-three" class="item"><path class="cls-19" d="M616.77,196.48,467.91,284.4l148.86,87.91a179.52,179.52,0,0,0,0-175.83Z" transform="translate(-217.44 -41.11)"/><path class="cls-20" d="M616.77,196.48,467.91,284.4l148.86,87.91a179.52,179.52,0,0,0,0-175.83Z" transform="translate(-217.44 -41.11)"/><polygon class="cls-21" points="399.33 155.38 391.36 154.59 393.74 158.68 399.33 155.38"/><text class="cls-12" transform="translate(359.3 219.17)">3</text><text class="cls-13" transform="translate(332.85 244.02)">Vinculación<tspan x="36.02" y="17.24">e </tspan><tspan x="0.66" y="34.48">integración</tspan></text></g><g id="item-two" class="item"><path class="cls-22" d="M611.66,199.68c-28.61-50.57-82-84.59-143.27-84.59V284.3Z" transform="translate(-217.44 -41.11)"/><path class="cls-23" d="M611.41,199.68c-28.6-50.57-82-84.59-143.27-84.59V284.3Z" transform="translate(-217.44 -41.11)"/><polygon class="cls-24" points="250.95 73.98 248.09 77.74 250.95 77.71 250.95 73.98"/><text class="cls-12" transform="translate(302.99 124.35)">2</text><text class="cls-13" transform="translate(278.1 144.89)">Planeación<tspan x="-3.36" y="17.24">y Estructura</tspan></text></g><g id="item-one" class="item"><path class="cls-25" d="M468.14,118.92c-59.87,0-112.14,33.27-140.11,82.73L468.14,284.4Z" transform="translate(-217.44 -41.11)"/><path class="cls-26" d="M468.14,118.92c-59.87,0-112.14,33.27-140.11,82.73L468.14,284.4Z" transform="translate(-217.44 -41.11)"/><text class="cls-12" transform="translate(177.38 127.22)">1</text><text class="cls-13" transform="translate(151.95 144.89)">Alineación <tspan x="-3.33" y="17.24">Estratégica</tspan></text></g><g id="circle-brand"><path class="cls-27" d="M467.91,364.57c-43.21,0-78.37-36-78.37-80.17s35.16-80.18,78.37-80.18,78.38,36,78.38,80.18S511.13,364.57,467.91,364.57Z" transform="translate(-217.44 -41.11)"/><path class="cls-28" d="M467.91,357.68c-39.5,0-71.63-32.88-71.63-73.28s32.13-73.28,71.63-73.28S539.55,244,539.55,284.4,507.41,357.68,467.91,357.68Z" transform="translate(-217.44 -41.11)"/><text x="-217.44" y="-41.11"/></g><g id="brand-logo"><path class="cls-2" d="M424.51,279.1a11,11,0,0,1,2.5-9.58l27.47-27.82a9.35,9.35,0,0,1,9.35-1.93L509,257.9a9.15,9.15,0,0,1,5.32,7.85l0,35a6.76,6.76,0,0,1-5.69,6.48l-67.95,9.16a6.76,6.76,0,0,1-7.2-4.75Z" transform="translate(-217.44 -41.11)"/><path class="cls-29" d="M451.81,280.37a10,10,0,0,1-3.95.72,8.5,8.5,0,0,1-8.87-8.87c0-5,3.84-8.9,9.28-8.9a9.3,9.3,0,0,1,3.54.6v4.76a6.13,6.13,0,0,0-3.65-1,4.27,4.27,0,0,0-4.27,4.52,4.36,4.36,0,0,0,4.6,4.6,6.75,6.75,0,0,0,3.32-.84Zm9.69-5a4.84,4.84,0,0,0-1.82-.34c-1.35,0-2.12.66-2.12,1.63a1.47,1.47,0,0,0,1.64,1.49,2.13,2.13,0,0,0,2.3-2.17Zm16.3-3.48a12.26,12.26,0,0,0-4.83-1.35c-1,0-1.34.29-1.34.65,0,.57.76.81,2.16,1.22,2.62.75,4.71,1.65,4.71,4.23,0,3-2.54,4.5-6.11,4.5a11.21,11.21,0,0,1-4.65-.91v-3.55a13.27,13.27,0,0,0,4.9,1.2c1.28,0,1.64-.25,1.64-.72s-.74-.79-2.13-1.17c-2.63-.69-4.72-1.57-4.72-4.24,0-2.89,2.51-4.47,5.75-4.47a10.18,10.18,0,0,1,4.62,1Zm2.52-3.6a15.53,15.53,0,0,1,5.12-1c4.41,0,6.72,1.67,6.72,5.86v7.59h-4.59v-1.35a5.07,5.07,0,0,1-3.9,1.65c-2.52,0-4.47-1.43-4.47-4.12s2.08-4.14,5.19-4.14a10.15,10.15,0,0,1,3.19.5V273c0-1.36-.86-2.2-2.93-2.2a11.12,11.12,0,0,0-4.31,1Zm7.32,7.08a4.88,4.88,0,0,0-1.82-.34c-1.36,0-2.13.66-2.13,1.63a1.47,1.47,0,0,0,1.64,1.49,2.14,2.14,0,0,0,2.31-2.17Zm-33.45-7.08a15.42,15.42,0,0,1,5.11-1c4.42,0,6.73,1.67,6.73,5.86v7.59h-4.6v-1.35a5,5,0,0,1-3.89,1.65c-2.53,0-4.47-1.43-4.47-4.12s2.07-4.14,5.19-4.14a10.25,10.25,0,0,1,3.19.5V273c0-1.36-.87-2.2-2.94-2.2a11.12,11.12,0,0,0-4.31,1ZM440,283.18h4.75v12.9h7v4.16H440ZM452.7,287h4.65l0,7.15c0,1.44.76,2.23,1.89,2.23a2,2,0,0,0,1.93-2.23V287h4.65l0,13.19h-4.67v-1.81a4.8,4.8,0,0,1-4,2.1c-2.81,0-4.5-1.85-4.52-4.84ZM468,283.18h4.64v8.26l3.61-4.43h5.26l-4.59,5.31,4.74,7.89h-5.14l-2.67-4.49-1.21,1.4v3.09H468ZM495,287h4.65v2.67a4.06,4.06,0,0,1,4.2-2.87v4.88h-.4c-2.43,0-3.78,1.38-3.78,4.43v4.1H495Zm7.45,11.33h.59a.52.52,0,0,1,.38.12.37.37,0,0,1,.12.29.41.41,0,0,1-.24.39l.3.43h-.4l-.26-.36h-.15v.36h-.34Zm.56.58c.12,0,.19-.05.19-.15s-.07-.14-.19-.14h-.22v.29Zm0,1.5a1.46,1.46,0,0,1-1.46-1.43,1.45,1.45,0,0,1,2.9,0,1.46,1.46,0,0,1-1.44,1.45m0-2.54a1.1,1.1,0,1,0,0,2.2,1.1,1.1,0,1,0,0-2.2m-17.72-5.58a10.37,10.37,0,0,0,3.29.23c1-.1,1.39-.12,1.39-.63a3.11,3.11,0,0,0-.12-.85,2.09,2.09,0,0,0-2.42-1.33,2.31,2.31,0,0,0-2.14,2.58m3.44,4.73a8.81,8.81,0,0,0,4.56-1.33v3.62a11.55,11.55,0,0,1-5.41,1.32c-4.41,0-7.17-2.5-7.17-7,0-4.05,2.69-7.05,7-6.92,2.92.09,4.88,1.49,5.5,4.3a5.78,5.78,0,0,1-.31,3.29c-.48.42-2.53.65-4.06.69a13.33,13.33,0,0,1-3.53-.31c0,1.4.89,2.32,3.41,2.32" transform="translate(-217.44 -41.11)"/></g></g></g></svg>