<svg xmlns="http://www.w3.org/2000/svg" width="74.29" height="64.57" viewBox="0 0 74.29 64.57">
  <defs>
    <style>
      .cls-1 {
        fill: none;
        stroke: #000;
        stroke-miterlimit: 10;
        stroke-width: 3px;
      }
    </style>
  </defs>
  <title>communication</title>
  <g id="Capa_2" data-name="Capa 2">
    <g id="Capa_1-2" data-name="Capa 1">
      <g>
        <path class="cls-1" d="M30.66,29A1.62,1.62,0,0,1,29,27.42V22.56c0-1.84,5.36-4.86,9.73-4.86h0c4.37,0,9.73,3,9.73,4.86v4.86A1.62,1.62,0,0,1,46.87,29Z"/>
        <path class="cls-1" d="M38.77,17.7c3.89,0,6.48-3.11,6.48-6.94V8.44c0-3.83-2.59-6.94-6.48-6.94s-6.48,3.11-6.48,6.94v2.32C32.29,14.59,34.87,17.7,38.77,17.7Z"/>
        <path class="cls-1" d="M55,63.07a1.62,1.62,0,0,1-1.62-1.62V56.59c0-1.85,5.35-4.86,9.72-4.86h0c4.37,0,9.72,3,9.72,4.86v4.86a1.62,1.62,0,0,1-1.62,1.62Z"/>
        <path class="cls-1" d="M63.07,51.73c3.9,0,6.48-3.11,6.48-6.95V42.47c0-3.84-2.58-6.94-6.48-6.94s-6.48,3.1-6.48,6.94v2.31C56.59,48.62,59.17,51.73,63.07,51.73Z"/>
        <path class="cls-1" d="M3.12,63.07A1.63,1.63,0,0,1,1.5,61.45V56.59c0-1.85,5.35-4.86,9.73-4.86h0c4.37,0,9.72,3,9.72,4.86v4.86a1.62,1.62,0,0,1-1.62,1.62Z"/>
        <path class="cls-1" d="M11.22,51.73c3.9,0,6.48-3.11,6.48-6.95V42.47c0-3.84-2.58-6.94-6.48-6.94s-6.48,3.1-6.48,6.94v2.31C4.74,48.62,7.32,51.73,11.22,51.73Z"/>
        <path class="cls-1" d="M8,30.66V14.46A4.87,4.87,0,0,1,12.84,9.6h13"/>
        <polyline class="cls-1" points="19.32 16.08 25.8 9.6 19.32 3.12"/>
        <polyline class="cls-1" points="32.28 56.59 25.8 50.11 32.28 43.63"/>
        <path class="cls-1" d="M50.11,9.6h9.72a4.87,4.87,0,0,1,4.86,4.86V29"/>
        <polyline class="cls-1" points="58.21 22.56 64.69 29.05 71.17 22.56"/>
        <line class="cls-1" x1="50.11" y1="50.11" x2="25.8" y2="50.11"/>
      </g>
    </g>
  </g>
</svg>
