<svg xmlns="http://www.w3.org/2000/svg" width="14.39mm" height="18.19mm" viewBox="0 0 40.79 51.55">
  <defs>
    <style>
      .cls-1 {
        fill: none;
        stroke: #000;
        stroke-miterlimit: 10;
        stroke-width: 1.3px;
      }
    </style>
  </defs>
  <title>Recurso 3</title>
  <g id="Capa_2" data-name="Capa 2">
    <g id="Capa_1-2" data-name="Capa 1">
      <g>
        <path class="cls-1" d="M13.81,51.55V49.36c0-1.25,3.63-3.29,6.59-3.29h0c3,0,6.59,2,6.59,3.29v2.19"/>
        <path class="cls-1" d="M20.39,46.07a4.42,4.42,0,0,0,4.39-4.7V39.8a4.4,4.4,0,1,0-8.77,0v1.57A4.42,4.42,0,0,0,20.39,46.07Z"/>
        <path class="cls-1" d="M27,49.36c0-1.25,3.62-3.29,6.58-3.29h0c3,0,6.59,2,6.59,3.29v2.19"/>
        <path class="cls-1" d="M33.56,46.07a4.42,4.42,0,0,0,4.38-4.7V39.8a4.4,4.4,0,1,0-8.77,0v1.57A4.42,4.42,0,0,0,33.56,46.07Z"/>
        <path class="cls-1" d="M.65,51.55V49.36c0-1.25,3.63-3.29,6.58-3.29h0c3,0,6.58,2,6.58,3.29"/>
        <path class="cls-1" d="M7.23,46.07a4.42,4.42,0,0,0,4.39-4.7V39.8a4.4,4.4,0,1,0-8.78,0v1.57A4.42,4.42,0,0,0,7.23,46.07Z"/>
        <line class="cls-1" x1="20.39" y1="6.58" x2="20.39"/>
        <line class="cls-1" x1="28.93" y1="11.52" x2="34.63" y2="8.23"/>
        <line class="cls-1" x1="28.94" y1="21.39" x2="34.64" y2="24.68"/>
        <line class="cls-1" x1="14.06" y1="5.49" x2="15.46" y2="7.9"/>
        <line class="cls-1" x1="33.56" y1="16.45" x2="30.27" y2="16.45"/>
        <line class="cls-1" x1="26.73" y1="5.48" x2="25.33" y2="7.9"/>
        <line class="cls-1" x1="11.31" y1="11.52" x2="5.61" y2="8.23"/>
        <line class="cls-1" x1="11.3" y1="21.39" x2="5.6" y2="24.68"/>
        <line class="cls-1" x1="7.23" y1="16.45" x2="10.52" y2="16.45"/>
        <polyline class="cls-1" points="17.1 25.23 17.1 28.52 19.3 30.71 21.49 30.71 23.68 28.52 23.68 25.23"/>
        <path class="cls-1" d="M23.68,25.23v-1.1a3.87,3.87,0,0,1,1.24-2.91,6.68,6.68,0,0,0,2-4.77,6.58,6.58,0,1,0-13.16,0,6.68,6.68,0,0,0,2,4.77,3.87,3.87,0,0,1,1.24,2.91v1.1Z"/>
      </g>
    </g>
  </g>
</svg>
