<svg xmlns="http://www.w3.org/2000/svg" width="17.73mm" height="17.24mm" viewBox="0 0 50.27 48.87">
  <defs>
    <style>
      .cls-1 {
        fill: none;
        stroke: #000;
        stroke-miterlimit: 10;
        stroke-width: 1.3px;
      }
    </style>
  </defs>
  <title>Recurso 2</title>
  <g id="Capa_2" data-name="Capa 2">
    <g id="Capa_1-2" data-name="Capa 1">
      <g>
        <circle class="cls-1" cx="16.37" cy="26.59" r="3.76"/>
        <circle class="cls-1" cx="5.63" cy="30.89" r="3.76"/>
        <path class="cls-1" d="M9.39,48.62,11.9,36.9c.41-1.94,1.79-2.92,3.94-3.33l6.44-1.07,6.4-5.77s2.12,3.62-.23,5.84l-4.61,4.56-7,2.15"/>
        <line class="cls-1" x1="19.06" y1="48.62" x2="21.21" y2="37.87"/>
        <circle class="cls-1" cx="40.6" cy="29.81" r="3.76"/>
        <path class="cls-1" d="M49.64,48.62l-2.41-8.38c-.41-1.94-1.62-3.44-5-3.44H29.31s.72,4.3,4.3,4.3h8.6"/>
        <line class="cls-1" x1="41.71" y1="48.62" x2="38.98" y2="41.1"/>
        <path class="cls-1" d="M.64,48.62,2.23,41.2c.41-1.94,1.78-2.92,3.93-3.33l5.38-1.07"/>
        <polyline class="cls-1" points="17.07 4.26 2.21 10.62 7.1 14.4 6.44 20.5 21.3 14.14"/>
        <line class="cls-1" x1="27.25" y1="28.02" x2="15.34" y2="0.26"/>
        <line class="cls-1" x1="30.87" y1="36.79" x2="28.91" y2="32.04"/>
        <line class="cls-1" x1="35.76" y1="48.62" x2="32.65" y2="41.1"/>
      </g>
    </g>
  </g>
</svg>
