<svg xmlns="http://www.w3.org/2000/svg" width="36.62" height="38.18" viewBox="0 0 36.62 38.18">
  <defs>
    <style>
      .cls-1 {
        fill: none;
        stroke: #000;
        stroke-miterlimit: 22.93;
        fill-rule: evenodd;
      }
    </style>
  </defs>
  <title>group-meet</title>
  <g id="Capa_2" data-name="Capa 2">
    <g id="Capa_1-2" data-name="Capa 1">
      <path class="cls-1" d="M27.83,26.88H8.88m27.25-1.73L35.4,31c-.21,1.54-1,2.36-2.4,2.34l-4.63,0m-1.2-17.87a2.06,2.06,0,0,1,2.17-1.78,1.92,1.92,0,0,1,2.23,1.56,6,6,0,0,1-.32,2.49,2.45,2.45,0,0,1-1.46,1.11,1.71,1.71,0,0,1-.71,0,2.3,2.3,0,0,1-1.5-1,5.83,5.83,0,0,1-.41-2.45Zm.2,22.6.19-5.71c0-.23.13-.36.41-.37h3.88c1.85,0,2.25-1.44,2.22-2.83a26.26,26.26,0,0,0-.85-6.92,3.08,3.08,0,0,0-4.92-1.42,17.32,17.32,0,0,0-2.37,3.24.78.78,0,0,1-.2.11l-4.3.6c-1.07.25-.57,1.85.32,2H26a2.2,2.2,0,0,0,.84-.28l2.89-2.35m-.8.82.81,3.39-.26.42-3.33.75A2,2,0,0,0,24.8,31.7l.41,6.45M.5,25.15,1.22,31c.22,1.54,1,2.36,2.4,2.34l4.63,0M9.46,15.54a2.07,2.07,0,0,0-2.18-1.78,1.93,1.93,0,0,0-2.23,1.56,6.18,6.18,0,0,0,.32,2.49,2.45,2.45,0,0,0,1.46,1.11,1.72,1.72,0,0,0,.71,0,2.32,2.32,0,0,0,1.51-1,6.17,6.17,0,0,0,.41-2.45Zm-.2,22.6-.2-5.71c0-.23-.13-.36-.41-.37H4.78c-1.85,0-2.26-1.44-2.23-2.83a26.28,26.28,0,0,1,.86-6.92,3.08,3.08,0,0,1,4.92-1.42,18.26,18.26,0,0,1,2.37,3.24.59.59,0,0,0,.19.11l4.3.6c1.07.25.57,1.85-.32,2H10.63a2.09,2.09,0,0,1-.83-.28L6.9,24.17m.8.82-.81,3.39.26.42,3.33.75a2,2,0,0,1,1.34,2.15l-.41,6.45m9-22.91a1.84,1.84,0,0,0-2-1.55,1.84,1.84,0,0,0-2,1.55,5.81,5.81,0,0,0,.33,2.31,2.2,2.2,0,0,0,1.37,1,1.43,1.43,0,0,0,.65,0,2.15,2.15,0,0,0,1.37-1,5.65,5.65,0,0,0,.34-2.31Zm-6.8,8.24.32-1.87c0-2.35,8.86-2.34,8.89,0L23,23.48M8.42,11.89a15.35,15.35,0,0,1,19.71,0m-7.64-9L18.28.71,16.06,2.92m2.22,4.33V.71M33,8.58,32.7,5.47l-3.12.27M28.5,10.49l4.2-5M3.65,8.58l.28-3.11L7,5.74m1.09,4.75-4.2-5"/>
    </g>
  </g>
</svg>
