<svg xmlns="http://www.w3.org/2000/svg" width="70.76" height="74.03" viewBox="0 0 70.76 74.03">
  <defs>
    <style>
      .cls-1 {
        fill: none;
        stroke: #000;
        stroke-miterlimit: 10;
        stroke-width: 3px;
      }
    </style>
  </defs>
  <title>hand-figure</title>
  <g id="Capa_2" data-name="Capa 2">
    <g id="Capa_1-2" data-name="Capa 1">
      <g>
        <path class="cls-1" d="M23.55,64.26a3.64,3.64,0,0,1,3.06-1.53H49.14c1.7,0,11.06-9.38,12.24-10.72A81.05,81.05,0,0,0,69,39.77c-.89-1.2-3.29-2.19-6.12-1.53s-4.3,2.57-6.13,6.12l-7,3.64"/>
        <path class="cls-1" d="M32.3,53.54H46.08c6.12,0,6.12-7.65,0-7.65H36.89c-1.27,0-3.66-3.06-5.69-3.06H23.55c-2.07,0-4.64,1.68-6.12,3.06C15.13,48.18,11.09,52,11.09,52"/>
        <rect class="cls-1" x="9.27" y="48.53" width="8.66" height="23.81" transform="translate(-38.75 27.32) rotate(-45)"/>
        <path class="cls-1" d="M44.55,1.5v9.18a4.92,4.92,0,0,1,3.06-1.53,4.6,4.6,0,0,1,0,9.19,4.92,4.92,0,0,1-3.06-1.53v7.65"/>
        <path class="cls-1" d="M67.51,24.46H58.32a4.87,4.87,0,0,1,1.53,3.06,4.59,4.59,0,0,1-9.18,0,4.92,4.92,0,0,1,1.53-3.06H44.55"/>
        <path class="cls-1" d="M44.55,24.46v7.65a5,5,0,0,0-3.06-1.53,4.6,4.6,0,1,0,0,9.19,5,5,0,0,0,3.06-1.53v7.65"/>
        <path class="cls-1" d="M21.59,24.46h9.18a4.92,4.92,0,0,1-1.53-3.06,4.59,4.59,0,0,1,9.18,0,4.87,4.87,0,0,1-1.53,3.06h7.66"/>
        <path class="cls-1" d="M27.43,39.76a23,23,0,1,1,37.43-4.58"/>
      </g>
    </g>
  </g>
</svg>
