<svg xmlns="http://www.w3.org/2000/svg" width="35.57" height="37.5" viewBox="0 0 35.57 37.5">
  <defs>
    <style>
      .cls-1 {
        fill: none;
        stroke: #000;
        stroke-miterlimit: 22.93;
        fill-rule: evenodd;
      }
    </style>
  </defs>
  <title>shakehand</title>
  <g id="Capa_2" data-name="Capa 2">
    <g id="Capa_1-2" data-name="Capa 1">
      <path class="cls-1" d="M33.22,37.43,32.79,21.7l-.49-9.8M30.87,37.43l-1.7-13.15h-.5l-.49,13.15m-2.41,0-.63-15-.25-10m-6.62,4.52,3.88-1.51,1-3.49c.61-3,4.23-2.84,7.58-2.93,2.4-.06,3.38.64,4,2.94l.38,5.49c-.14,2.61-.22,4.7-.35,7.3l-1.8,1.36M25.69,1.8c.9-1.64,5.24-1.81,5.49.79A7.85,7.85,0,0,1,30.7,5.8a3.25,3.25,0,0,1-2.28,1.5,2.28,2.28,0,0,1-2.7-1.56c-.29-.92-.53-3,0-3.94ZM10.08,2C9.33.25,5-.32,4.54,2.25a7.84,7.84,0,0,0,.18,3.23A3.28,3.28,0,0,0,6.85,7.19,2.29,2.29,0,0,0,9.69,5.88c.37-.88.8-3,.39-3.91ZM3.28,11.9l-.5,9.8L2.36,37.43M18.27,17.87v-.95l-4.84-1.51-1-3.45c-.63-2.87-3.18-2.84-5.77-3-2.95-.22-4.8-.18-5.62,3L.5,17.42l.36,7.4,1.81,1.1m7.91-9.55,1.15,1.68,6.5.88,5.27-.85L25,16.3M4.7,37.43,6.41,24.28H6.9l.5,13.16m2.41,0,.63-15.58.24-9.45M6.86,11.34,6.42,19.8M7,9,6.9,10.68m21.51.76.44,8.46M28.28,9.07l.09,1.7"/>
    </g>
  </g>
</svg>
