<svg xmlns="http://www.w3.org/2000/svg" width="22.84" height="26.1" viewBox="0 0 22.84 26.1">
  <defs>
    <style>
      .cls-1 {
        fill: none;
        stroke-miterlimit: 10;
        stroke: #000;
      }
    </style>
  </defs>
  <title>tool</title>
  <g id="Capa_2" data-name="Capa 2">
    <g id="Capa_1-2" data-name="Capa 1">
      <g class="cls-1">
        <path  d="M11.52,15l7.32,7.32a2,2,0,0,0,2.7-.38l0,0a1.88,1.88,0,0,0,.35-2.66l-3.09-3.09"/>
        <path  d="M16.92,10.37,17.3,10a.55.55,0,0,0,0-.77L16.15,8.05a.56.56,0,0,0-.78,0l-.77.77"/>
        <path  d="M13.45,10,14.6,8.82a.53.53,0,0,0,0-.77L13.45,6.9a.53.53,0,0,0-.77,0L11.52,8.05"/>
        <path  d="M14.37,14l1,1a.55.55,0,0,0,.77,0l2.7-2.7a.53.53,0,0,0,0-.77l-1.15-1.15a.53.53,0,0,0-.77,0l-1.55,1.54"/>
        <path  d="M11.14,21.54l.77-.77c.66-.66,2.15.16,3.08-.77l1.16-1.16"/>
        <path  d="M10.37,16.92c1.66-1.66,1.73-4.43.38-5.78.25.25.89.88,1.54,1.54a2.18,2.18,0,0,0,3.47-.39L11.52,8.05a1.83,1.83,0,0,0-1.81-.47,8.05,8.05,0,0,0-2.57.59c-.46.34-.86,2-.86,3.27a6.08,6.08,0,0,1-.54,3.16L5,15.37"/>
        <path  d="M18.84,12.29l1.54,1.54a.53.53,0,0,1,0,.77l-2.69,2.7a.55.55,0,0,1-.77,0l-1.16-1.15a.56.56,0,0,1,0-.78l.39-.38"/>
        <rect  x="1.06" y="17.82" width="10.9" height="4.36" transform="translate(16.04 1.25) rotate(44.99)"/>
        <line  x1="19.23" y1="19.61" x2="20.38" y2="20.77"/>
        <line  x1="3.81" y1="17.3" x2="4.58" y2="18.07"/>
        <path  d="M10.37,7.67,8.49,5.79A4.08,4.08,0,0,0,2.83.9L5.74,3.81,3.81,5.74.9,2.83a4.08,4.08,0,0,0,4.26,5.8L6.51,10"/>
      </g>
    </g>
  </g>
</svg>
